<svg xmlns="http://www.w3.org/2000/svg" xmlns:xlink="http://www.w3.org/1999/xlink" width="91" height="72" viewBox="0 0 507.657 400.136"><defs><linearGradient id="a" x1=".136" y1=".884" x2=".395" y2=".884" gradientUnits="objectBoundingBox"><stop offset="0" stop-color="#43b94a"/><stop offset=".1" stop-color="#43b74a"/><stop offset=".2" stop-color="#41b448"/><stop offset=".3" stop-color="#3eae47"/><stop offset=".4" stop-color="#3ba644"/><stop offset=".5" stop-color="#369c41"/><stop offset=".6" stop-color="#31913d"/><stop offset=".7" stop-color="#2b8439"/><stop offset=".8" stop-color="#257534"/><stop offset=".9" stop-color="#1e662f"/><stop offset="1" stop-color="#18572a"/></linearGradient><linearGradient id="d" x1=".235" y1=".566" x2=".775" y2=".566" xlink:href="#a"/><linearGradient id="f" x1=".605" y1=".645" x2=".864" y2=".645" xlink:href="#a"/><linearGradient id="h" x1=".225" y1=".116" x2=".765" y2=".116" xlink:href="#a"/><clipPath id="b"><path d="M162.987-340.157c0 89.869-73.119 162.986-162.987 162.986V-103c130.769 0 237.156-106.387 237.156-237.155h-74.169z" transform="translate(0 340.157)" fill="none"/></clipPath><clipPath id="c"><path d="M0-127.436c88.712 0 161.1 71.238 162.951 159.516h74.18C235.259-97.088 129.6-201.606 0-201.606z" transform="translate(0 201.606)" fill="none"/></clipPath><clipPath id="e"><path d="M229.976 32.076h74.178c1.827-87.153 72.4-157.7 159.564-159.481v-74.182C335.67-199.78 231.832-95.961 229.976 32.076" transform="translate(-229.976 201.586)" fill="none"/></clipPath><clipPath id="g"><path d="M229.954-340.157c0 129.635 104.558 235.309 233.768 237.131v-74.18c-88.314-1.806-159.6-74.212-159.6-162.951h-74.168z" transform="translate(-229.954 340.157)" fill="none"/></clipPath></defs><g clip-path="url(#b)"><path d="M0 439.644L253.829 0l346.528 200.068-253.829 439.644z" transform="rotate(60 380.743 219.822)" fill="url(#a)"/></g><g transform="translate(0 162.981)" clip-path="url(#c)"><path d="M0 439.644L253.829 0l346.528 200.068-253.829 439.644z" fill="url(#d)" transform="rotate(60 521.889 138.332)"/></g><g transform="translate(270.527 163.005)" clip-path="url(#e)"><path d="M0 439.644L253.829 0l346.528 200.068-253.829 439.644z" fill="url(#f)" transform="rotate(60 386.646 -95.964)"/></g><g transform="translate(270.501)" clip-path="url(#g)"><path d="M0 439.644L253.829 0l346.528 200.068-253.829 439.644z" fill="url(#h)" transform="rotate(60 245.492 -14.439)"/></g></svg>